<?xml version="1.0" encoding="UTF-8" standalone="no"?>
<svg
     xmlns:dc="http://purl.org/dc/elements/1.1/"
     xmlns:cc="http://creativecommons.org/ns#"
     xmlns:rdf="http://www.w3.org/1999/02/22-rdf-syntax-ns#"
     xmlns:svg="http://www.w3.org/2000/svg"
     xmlns="http://www.w3.org/2000/svg"
     xmlns:sodipodi="http://sodipodi.sourceforge.net/DTD/sodipodi-0.dtd"
     xmlns:inkscape="http://www.inkscape.org/namespaces/inkscape"
     width="4000"
     height="2000"
     viewBox="0 0 4000 2000.0001"
     version="1.1"
     id="svg8"
     inkscape:version="1.0.1 (3bc2e813f5, 2020-09-07)"
     sodipodi:docname="logo.svg"
     inkscape:export-filename="/home/you_create/Shared/Vector Graphics/Logo/free-tshirts/logo/previews/logo.dark.preview.png"
     inkscape:export-xdpi="96"
     inkscape:export-ydpi="96">
    <title
         id="title9">Logo of The Free T-shirts Campaign</title>
    <defs
         id="defs2" />
    <sodipodi:namedview
         id="base"
         pagecolor="#ffffff"
         bordercolor="#666666"
         borderopacity="1.0"
         inkscape:pageopacity="0.0"
         inkscape:pageshadow="2"
         inkscape:zoom="0.226"
         inkscape:cx="2403.2675"
         inkscape:cy="1038.1392"
         inkscape:document-units="px"
         inkscape:current-layer="layer2"
         inkscape:document-rotation="0"
         showgrid="false"
         inkscape:showpageshadow="false"
         units="px"
         inkscape:snap-bbox="true"
         inkscape:bbox-paths="true"
         inkscape:bbox-nodes="true"
         inkscape:snap-bbox-edge-midpoints="true"
         inkscape:snap-bbox-midpoints="true"
         showguides="false"
         inkscape:snap-text-baseline="true"
         inkscape:window-width="1920"
         inkscape:window-height="1080"
         inkscape:window-x="0"
         inkscape:window-y="0"
         inkscape:window-maximized="1" />
    <metadata
         id="metadata5">
        <rdf:RDF>
            <cc:Work
                 rdf:about="">
                <dc:format>image/svg+xml</dc:format>
                <dc:type
                     rdf:resource="http://purl.org/dc/dcmitype/StillImage" />
                <dc:title>Logo of The Free T-shirts Campaign</dc:title>
                <dc:creator>
                    <cc:Agent>
                        <dc:title>Nguyen Hoang Duong &lt;you_create@protonmail.com&gt;</dc:title>
                    </cc:Agent>
                </dc:creator>
                <dc:description>Logo of The Free T-shirts Campaign in 2 basic colors, with accompanied backgrounds that are not part of the logo. Check out the website of the campaign: https://you-create.github.io/free-tshirts.</dc:description>
            </cc:Work>
        </rdf:RDF>
    </metadata>
    <g
         inkscape:label="Background"
         inkscape:groupmode="layer"
         id="layer1">
        <rect
             style="fill:#f2f2f2;stroke-width:21.7995;stop-color:#000000"
             id="rect10"
             width="2000"
             height="2000"
             x="0"
             y="0"
             inkscape:export-filename="/home/you_create/Shared/Vector Graphics/Logo/free-tshirts/logo/previews/logo.dark.preview.png"
             inkscape:export-xdpi="96"
             inkscape:export-ydpi="96" />
        <rect
             style="fill:#1a1a1a;stroke-width:21.7995;stop-color:#000000"
             id="rect55"
             width="2000"
             height="2000"
             x="2000"
             y="0"
             inkscape:export-filename="/home/you_create/Shared/Vector Graphics/Logo/free-tshirts/logo/previews/logo.light.preview.png"
             inkscape:export-xdpi="96"
             inkscape:export-ydpi="96" />
    </g>
    <g
         inkscape:groupmode="layer"
         id="layer2"
         inkscape:label="Logo">
        <path
             id="rect20"
             style="display:inline;fill:#1a1a1a;stroke-width:11.7205;stop-color:#000000"
             d="M 598.07618,470.19141 250.00001,671.15234 410.76954,949.61525 598.07618,841.47266 V 1529.8086 H 1401.9239 V 841.47266 L 1589.2305,949.61525 1750,671.1543 1401.9239,470.19141 H 1200.961 A 200.96187,200.96187 0 0 1 999.99999,671.15234 200.96187,200.96187 0 0 1 799.03711,470.19141 Z M 1028.709,770.32813 v 28.71093 h 86.127 a 57.417644,57.417644 0 0 1 57.2343,52.8418 h 0.1836 v 270.64844 a 57.417644,57.417644 0 0 1 28.7071,49.7247 57.417644,57.417644 0 0 1 -57.418,57.416 57.417644,57.417644 0 0 1 -57.418,-57.416 57.417644,57.417644 0 0 1 28.711,-49.7266 V 913.87305 856.45508 h -86.127 v 28.70898 l -24.8633,-28.70898 -24.86131,-28.70899 24.86131,-28.70703 z m -172.60157,0.002 a 57.417644,57.417644 0 0 1 0.23829,0 57.417644,57.417644 0 0 1 0.10937,0 57.417644,57.417644 0 0 1 57.41797,57.41601 57.417644,57.417644 0 0 1 -28.70898,49.72657 v 245.05479 a 57.417644,57.417644 0 0 1 28.70898,49.7266 57.417644,57.417644 0 0 1 -57.41797,57.416 57.417644,57.417644 0 0 1 -57.41797,-57.416 57.417644,57.417644 0 0 1 28.70899,-49.7266 V 877.4707 a 57.417644,57.417644 0 0 1 -28.70899,-49.72461 57.417644,57.417644 0 0 1 57.07032,-57.41601 z"
             inkscape:export-filename="/home/you_create/Shared/Vector Graphics/Logo/free-tshirts/logo/previews/logo.dark.preview.png"
             inkscape:export-xdpi="96"
             inkscape:export-ydpi="96" />
        <path
             id="path57"
             style="display:inline;fill:#f2f2f2;stroke-width:11.7205;stop-color:#000000"
             d="M 2598.0762,470.1914 2250,671.15233 2410.7695,949.61524 2598.0762,841.47265 v 688.33595 h 803.8477 V 841.47265 L 3589.2305,949.61524 3750,671.15429 3401.9239,470.1914 H 3200.961 A 200.96187,200.96187 0 0 1 3000,671.15233 200.96187,200.96187 0 0 1 2799.0371,470.1914 Z m 430.6328,300.13672 v 28.71093 h 86.127 a 57.417644,57.417644 0 0 1 57.2343,52.8418 h 0.1836 v 270.64845 a 57.417644,57.417644 0 0 1 28.7071,49.7247 57.417644,57.417644 0 0 1 -57.418,57.416 57.417644,57.417644 0 0 1 -57.418,-57.416 57.417644,57.417644 0 0 1 28.711,-49.7266 V 913.87304 856.45507 h -86.127 v 28.70898 l -24.8633,-28.70898 -24.8613,-28.70899 24.8613,-28.70703 z m -172.6016,0.002 a 57.417644,57.417644 0 0 1 0.2383,0 57.417644,57.417644 0 0 1 0.1094,0 57.417644,57.417644 0 0 1 57.418,57.41601 57.417644,57.417644 0 0 1 -28.709,49.72658 v 245.05479 a 57.417644,57.417644 0 0 1 28.709,49.7266 57.417644,57.417644 0 0 1 -57.418,57.416 57.417644,57.417644 0 0 1 -57.418,-57.416 57.417644,57.417644 0 0 1 28.709,-49.7266 V 877.47069 a 57.417644,57.417644 0 0 1 -28.709,-49.72461 57.417644,57.417644 0 0 1 57.0703,-57.41601 z"
             inkscape:export-filename="/home/you_create/Shared/Vector Graphics/Logo/free-tshirts/logo/previews/logo.light.preview.png"
             inkscape:export-xdpi="96"
             inkscape:export-ydpi="96" />
    </g>
</svg>
